<svg xmlns="http://www.w3.org/2000/svg" viewBox="0 0 90 90"><defs><style>.cls-1{fill:#00b339;}.cls-2{fill:#fff;stroke:#fff;stroke-linecap:round;stroke-linejoin:round;stroke-width:0.47px;}.cls-3{fill:#da6925;}</style></defs><g id="Layer_2" data-name="Layer 2"><g id="Layer_1-2" data-name="Layer 1"><circle class="cls-1" cx="45" cy="45" r="45"/><path class="cls-2" d="M64,21.56H25.53a11,11,0,0,0-11,11V56a11,11,0,0,0,11,11h16l2.81,5.86L47.1,67H64A11,11,0,0,0,75,56V32.55A11,11,0,0,0,64,21.56Z"/><path class="cls-3" d="M35.75,35.19v2.63a1.89,1.89,0,0,1,1.58,1.84v9.73h3.16V41.91c0-1.71.12-3.16-.89-4.61A4.67,4.67,0,0,0,35.75,35.19Z"/><path class="cls-3" d="M47.58,38.61a5.52,5.52,0,1,0,5.53,5.52A5.52,5.52,0,0,0,47.58,38.61Zm0,8.15a2.63,2.63,0,1,1,2.63-2.63A2.62,2.62,0,0,1,47.58,46.76Z"/><path class="cls-3" d="M35.23,43.6S35,40.45,32.6,39.39a5.4,5.4,0,0,0-5.26.53V35.58H24.18l-.13,13.94h3.16V48.6a5.11,5.11,0,0,0,5.14.74C34.53,48.48,35.41,45.74,35.23,43.6Zm-5.52,3.16a2.63,2.63,0,1,1,2.62-2.63A2.63,2.63,0,0,1,29.71,46.76Z"/><path class="cls-3" d="M65.73,45.48V39.13h-2.9v1s-1.57-2.36-5.25-1a5.59,5.59,0,0,0-.53,9.47s3.16,1.84,5.78-.53c0,0,.53,3.42-2.36,3.16v2.62c0,.29,2.44-.37,2.58-.44C66.34,51.9,65.73,48.46,65.73,45.48Zm-5.52,1.28a2.63,2.63,0,1,1,2.62-2.63A2.63,2.63,0,0,1,60.21,46.76Z"/></g></g></svg>