<svg xmlns="http://www.w3.org/2000/svg" viewBox="0 0 90 90"><defs><style>.cls-1{fill:#fff;}.cls-2{fill:#f0432c;}.cls-3{fill:#ffbf00;}.cls-4{fill:#24aa49;}.cls-5{fill:#3384fc;}</style></defs><g id="Layer_2" data-name="Layer 2"><g id="Layer_1-2" data-name="Layer 1"><circle class="cls-1" cx="45" cy="45" r="45"/><path class="cls-2" d="M26.49,27.07l7.22,7.22a15.57,15.57,0,0,1,22-.4l.29.29h0L63.22,27a25.77,25.77,0,0,0-36.45-.16l-.27.27Z"/><path class="cls-3" d="M26.59,63.3l7.21-7.21a15.57,15.57,0,0,1,.08-22l0,0-7.22-7.22a25.79,25.79,0,0,0-.13,36.46l0,0Z"/><polygon class="cls-4" points="50.03 50.25 50.03 50.35 50.14 50.35 50.03 50.25"/><path class="cls-4" d="M44.85,70.89a25.72,25.72,0,0,0,18.26-7.58l-7.22-7.22a15.56,15.56,0,0,1-22,.07l-.07-.07L26.6,63.31A25.68,25.68,0,0,0,44.85,70.89Z"/><path class="cls-5" d="M70.17,40l-20,0V50.24h9.48a15.64,15.64,0,0,1-3.72,5.84l7.18,7.18A25.65,25.65,0,0,0,70.17,40Z"/></g></g></svg>