<svg xmlns="http://www.w3.org/2000/svg" viewBox="0 0 267.1 267.1"><defs><style>.cls-1{opacity:0.44;}.cls-2{fill:#fff;}</style></defs><g id="Layer_2" data-name="Layer 2"><g id="Layer_1-2" data-name="Layer 1"><g class="cls-1"><circle cx="133.55" cy="133.55" r="133.55"/></g><path class="cls-2" d="M133.55,74.12c19.36,0,21.65.07,29.3.42,19.65.9,28.83,10.22,29.72,29.72.35,7.64.42,9.94.42,29.3s-.07,21.65-.42,29.29c-.9,19.49-10,28.83-29.72,29.72-7.65.35-9.93.42-29.3.42s-21.65-.07-29.3-.42c-19.69-.9-28.82-10.26-29.71-29.72-.35-7.65-.43-9.94-.43-29.3s.08-21.65.43-29.3c.9-19.49,10-28.82,29.71-29.71C111.9,74.19,114.19,74.12,133.55,74.12Zm0-13.07c-19.69,0-22.15.09-29.89.44-26.33,1.2-41,15.81-42.17,42.17-.35,7.74-.44,10.2-.44,29.89s.09,22.16.44,29.89c1.2,26.33,15.81,41,42.17,42.18,7.74.35,10.2.43,29.89.43s22.16-.08,29.89-.43c26.31-1.21,41-15.82,42.17-42.18.36-7.73.44-10.2.44-29.89s-.08-22.15-.43-29.89c-1.19-26.3-15.82-41-42.17-42.17C155.71,61.14,153.24,61.05,133.55,61.05Zm0,35.27a37.24,37.24,0,1,0,37.23,37.23A37.23,37.23,0,0,0,133.55,96.32Zm0,61.4a24.17,24.17,0,1,1,24.17-24.17A24.17,24.17,0,0,1,133.55,157.72Zm38.7-71.57a8.7,8.7,0,1,0,8.7,8.7A8.7,8.7,0,0,0,172.25,86.15Z"/></g></g></svg>