<svg xmlns="http://www.w3.org/2000/svg" viewBox="0 0 90 90"><defs><style>.cls-1{fill:#ffe227;}.cls-2{fill:#1a1a1a;}</style></defs><g id="Layer_2" data-name="Layer 2"><g id="Layer_1-2" data-name="Layer 1"><g id="layer1"><circle id="path850" class="cls-1" cx="45" cy="45" r="45"/><g id="g1000"><path id="path900" class="cls-2" d="M44.92,17.5c-16.46,0-29.78,10.65-29.78,23.71,0,8,5.09,15.47,13.53,19.85C27.31,65.31,25.32,72,26,72.56s9-4.89,13.56-8a37.55,37.55,0,0,0,5.41.39c16.5,0,29.88-10.62,29.88-23.71h0C74.89,28.11,61.51,17.5,45,17.5Z"/><g id="g962"><path id="rect910" class="cls-1" d="M22.42,32.62a1.84,1.84,0,0,0-1.85,1.84h0a1.85,1.85,0,0,0,1.85,1.85h3.07V47.46a1.89,1.89,0,0,0,1.83,1.91,1.84,1.84,0,0,0,1.86-1.86V36.31h2.9a1.85,1.85,0,0,0,1.85-1.85h0a1.84,1.84,0,0,0-1.85-1.84H22.42Z"/><path id="rect923" class="cls-1" d="M38.13,32.68a1.83,1.83,0,0,0-.57.08A1.85,1.85,0,0,0,36,33.94L31,47a1.87,1.87,0,0,0,1.22,2.47,1.91,1.91,0,0,0,2.28-1.18l.74-1.92h5.81l.74,1.92a1.9,1.9,0,0,0,2.27,1.18A1.87,1.87,0,0,0,45.32,47l-5-13a1.84,1.84,0,0,0-1.64-1.19,2,2,0,0,0-.54-.07Zm0,6.13,1.47,3.83H36.7Z"/><path id="rect941" class="cls-1" d="M46.41,34.36V47.59a1.9,1.9,0,0,0,1.9,1.9h5.87a1.94,1.94,0,1,0,0-3.87H50.28V34.34a1.94,1.94,0,1,0-3.87,0Z"/><path id="rect945" class="cls-1" d="M56.61,34.47V47.64a1.93,1.93,0,1,0,3.86,0V43.6l.06-.05.68-.69,4.48,6a1.94,1.94,0,1,0,3.11-2.31l-4.86-6.45L68,35.89a1.94,1.94,0,1,0-2.76-2.72l-4.79,4.9V34.45a1.93,1.93,0,1,0-3.86,0Z"/></g></g></g></g></g></svg>