<svg xmlns="http://www.w3.org/2000/svg" viewBox="0 0 113.31 135.12"><defs><style>.cls-1{fill:#ebb3ac;}.cls-2,.cls-3{fill:#f7f7f7;}.cls-3{font-size:21.29px;font-family:GowunBatang-Bold, Gowun Batang;font-weight:700;}.cls-4{letter-spacing:-0.02em;}.cls-5{letter-spacing:0em;}</style></defs><g id="Layer_2" data-name="Layer 2"><g id="Layer_1-2" data-name="Layer 1"><rect class="cls-1" x="0.39" y="0.39" width="112.53" height="134.34" rx="16.87"/><path class="cls-2" d="M96.05.78a16.51,16.51,0,0,1,16.48,16.48v100.6a16.5,16.5,0,0,1-16.48,16.48H17.26A16.5,16.5,0,0,1,.78,117.86V17.26A16.51,16.51,0,0,1,17.26.78H96.05m0-.78H17.26A17.31,17.31,0,0,0,0,17.26v100.6a17.31,17.31,0,0,0,17.26,17.26H96.05a17.31,17.31,0,0,0,17.26-17.26V17.26A17.31,17.31,0,0,0,96.05,0Z"/><text class="cls-3" transform="translate(22.97 75.01)"><tspan class="cls-4">L</tspan><tspan class="cls-5" x="11.71" y="0">O</tspan><tspan x="29.06" y="0">GIN</tspan></text></g></g></svg>