<svg xmlns="http://www.w3.org/2000/svg" viewBox="0 0 441.84 107.59"><defs><style>.cls-1,.cls-2{fill:none;stroke-linecap:round;stroke-linejoin:round;}.cls-1,.cls-2,.cls-3,.cls-4{stroke:#f7f7f7;}.cls-1{stroke-width:4.1px;}.cls-2{stroke-width:3.36px;}.cls-3,.cls-4{fill:#f7f7f7;stroke-miterlimit:10;}.cls-3{stroke-width:0.93px;}.cls-4{stroke-width:0.56px;}</style></defs><g id="Layer_2" data-name="Layer 2"><g id="Layer_1-2" data-name="Layer 1"><circle class="cls-1" cx="34.68" cy="37.48" r="16.78"/><circle class="cls-1" cx="89.69" cy="38.41" r="16.78"/><path class="cls-1" d="M50.48,31.87s11.31-15.83,23.4.95"/><path class="cls-1" d="M22.56,66.38a38.63,38.63,0,0,1,39.16,1.86s29.83-14.91,50.34,1.87L91.55,105.53s-26.1-16.78-48.48,0c0,0-18.64-16.78-41-1.86Z"/><line class="cls-1" x1="43.07" y1="105.53" x2="61.72" y2="68.24"/><path class="cls-2" d="M24.43,77.57s9.32-9.33,20.51,0"/><path class="cls-2" d="M67.31,79.43s9.32-9.32,20.51,0"/><path class="cls-2" d="M65.45,88.75s9.32-9.32,20.51,0"/><path class="cls-2" d="M20.7,88.75s9.32-9.32,20.51,0"/><polyline class="cls-1" points="106.47 32.82 137.23 15.1 144.69 20.7"/><polyline class="cls-1" points="40.27 20.7 73.84 2.05 81.3 7.64"/><path class="cls-3" d="M164.14,25.87h1.3c.26.07.52.14.79.19a7,7,0,0,1,.84.25,5.43,5.43,0,0,1,.68.42c.23.17.44.33.62.48a2.09,2.09,0,0,1,.12.72,3.85,3.85,0,0,1-.12.9,10,10,0,0,1,1.84.5c.58.23,1.18.49,1.78.79a18.05,18.05,0,0,1,1.55,1.09,11.2,11.2,0,0,1,1.39,1.26,11,11,0,0,1,1,1.42l.91,1.48c.19.56.35,1.12.48,1.65a6.72,6.72,0,0,1,.2,1.54,8.48,8.48,0,0,1-.23,2,9.21,9.21,0,0,1-.62,1.79,15.06,15.06,0,0,1-1.1,1.76,9.89,9.89,0,0,1-1.33,1.48,11.3,11.3,0,0,1-1.67,1.29,9.3,9.3,0,0,1-2,.95,8.38,8.38,0,0,1-2.23.7,14.76,14.76,0,0,1-2.46.2,16.5,16.5,0,0,1-2.62-.2,7.56,7.56,0,0,1-2.23-.7,8.91,8.91,0,0,1-2-.95,7.09,7.09,0,0,1-1.55-1.34A7.44,7.44,0,0,1,156.09,44a8.21,8.21,0,0,1-1-1.76,5.12,5.12,0,0,1-.68-1.77,10.91,10.91,0,0,1-.17-1.93,10,10,0,0,1,.14-1.65,6.12,6.12,0,0,1,.54-1.65,15.34,15.34,0,0,1,.79-1.48,9,9,0,0,1,1.07-1.43,16.6,16.6,0,0,1,1.33-1.17,11.81,11.81,0,0,1,1.61-1.06c.53-.26,1.08-.51,1.67-.73s1.19-.43,1.83-.62h.23a.83.83,0,0,0,.39-.11.27.27,0,0,0,.26-.14,1.56,1.56,0,0,0,.14-.42.49.49,0,0,0-.06-.17l-.11-.22a.74.74,0,0,1-.28-.05,1.13,1.13,0,0,1-.23-.17.69.69,0,0,1-.45-.45.25.25,0,0,1-.14-.2,1.39,1.39,0,0,1,0-.3.43.43,0,0,1,.06-.17.68.68,0,0,1,.17-.23,1.49,1.49,0,0,0,.28-.11l.31-.08Zm8.75,12.69a7.63,7.63,0,0,0-.14-1.48,7.78,7.78,0,0,0-.42-1.48c-.23-.45-.46-.87-.71-1.26a7.4,7.4,0,0,0-.82-1.09,8.23,8.23,0,0,0-1.07-.9,11.75,11.75,0,0,0-1.19-.72,11.66,11.66,0,0,0-1.3-.39,5,5,0,0,0-1.3-.17,4.88,4.88,0,0,0-1.32.17c-.44.11-.88.24-1.33.39s-.82.46-1.22.72a7.86,7.86,0,0,0-1.1.9,9.25,9.25,0,0,0-.84,1.09,6.93,6.93,0,0,0-.68,1.26,5.82,5.82,0,0,0-.48,1.48,7.63,7.63,0,0,0-.14,1.48,12.19,12.19,0,0,0,.08,1.51,4.35,4.35,0,0,0,.42,1.4,5.82,5.82,0,0,0,.6,1.34,5,5,0,0,0,.87,1.12,5.25,5.25,0,0,0,1,1,5.59,5.59,0,0,0,1.24.7,4.78,4.78,0,0,0,1.36.48,8.42,8.42,0,0,0,1.52.14,7.12,7.12,0,0,0,2.72-.51,6.17,6.17,0,0,0,2.26-1.62,6.82,6.82,0,0,0,1.47-2.38A9.23,9.23,0,0,0,172.89,38.56Zm6.84,30.38q1.35,0,2.4,0a15.92,15.92,0,0,0,1.78-.14l1.3-.22.51-.12.51-.11a3.07,3.07,0,0,0,.34-.14l.33-.14.26-.11.31-.11a1.21,1.21,0,0,1,.48-.17,4.1,4.1,0,0,1,.76-.06l.65,0,.88.09a4.48,4.48,0,0,1,.93.08,9.43,9.43,0,0,1,.93.25,6.51,6.51,0,0,1,.85.28c.26.11.51.23.73.34a1,1,0,0,1,.48.44,1.32,1.32,0,0,1,.15.62.69.69,0,0,1-.23.5,2,2,0,0,1-.68.4,5.45,5.45,0,0,1-1.1.25A11.59,11.59,0,0,1,191,71H170.29a4.16,4.16,0,0,1-1.38-.22,3,3,0,0,1-1.16-.73,3,3,0,0,1-1.07-2.41v-7.1a2.05,2.05,0,0,0-.14-.78,1.8,1.8,0,0,0-.31-.51L165,58.31a8.52,8.52,0,0,1-.85-.73,4.57,4.57,0,0,1-.84-.47l-.57-.42a3.23,3.23,0,0,1-.54-.23.52.52,0,0,1-.25-.28.41.41,0,0,1-.25-.19.56.56,0,0,1-.09-.31.43.43,0,0,1,.06-.17,1.08,1.08,0,0,1,.22-.28.75.75,0,0,1,.37-.16,3.55,3.55,0,0,1,.76-.06l.37,0c.17,0,.37,0,.59.08a3.45,3.45,0,0,1,.57.06,5.06,5.06,0,0,0,.68,0c.22.08.45.14.67.2a4.7,4.7,0,0,1,.63.19,5.48,5.48,0,0,1,.67.17,4.51,4.51,0,0,0,.68.17l1.22.56,1.15.56a3.57,3.57,0,0,1,.74.7,1.12,1.12,0,0,1,.28.7,5.31,5.31,0,0,1-.05.72,5.72,5.72,0,0,1-.12.56,3.29,3.29,0,0,0-.14.68c0,.22,0,.44,0,.67v6.6a2,2,0,0,0,.06.5.78.78,0,0,0,.23.39.6.6,0,0,0,.31.25,1.3,1.3,0,0,0,.53.09Zm11.19-29.48.5,0,.57-.08h.39a1,1,0,0,0,.46-.12c.22-.07.5-.16.82-.28a6.44,6.44,0,0,0,1-.44,9.67,9.67,0,0,1,1-.28,4.2,4.2,0,0,1,1-.12,13.4,13.4,0,0,1,2,.15,13,13,0,0,1,1.78.36,3.56,3.56,0,0,1,1.18.64,1.13,1.13,0,0,1,.4.87.91.91,0,0,1-.71.87,7.16,7.16,0,0,1-2.17.25h-8.19v7.16c0,.71,0,1.42-.09,2.12s-.12,1.4-.2,2.07-.22,1.44-.34,2.07-.22,1.23-.33,1.79-.31,1.13-.46,1.6-.3.86-.45,1.2a2.16,2.16,0,0,1-.51.87.88.88,0,0,1-.56.25.75.75,0,0,1-.6-.31,2.59,2.59,0,0,1-.42-1,5.26,5.26,0,0,1-.28-1.42c0-.55-.06-1.15-.06-1.82V25.92a1.81,1.81,0,0,0-.2-.39,4,4,0,0,0-.31-.45c-.37-.33-.72-.63-1-.89l-.88-.73a6,6,0,0,1-.85-.45c-.22-.15-.43-.28-.62-.39a4.45,4.45,0,0,1-.48-.22,1.93,1.93,0,0,1-.36-.28.42.42,0,0,1-.31-.23.68.68,0,0,1-.09-.33.4.4,0,0,1,.09-.23,1.54,1.54,0,0,1,.31-.27l.36-.12a2,2,0,0,1,.43-.05l.34,0a3.54,3.54,0,0,1,.45.08,3.25,3.25,0,0,1,.56.06,5.31,5.31,0,0,0,.68.05c.49.11,1,.22,1.41.34l1.47.33c.45.19.9.37,1.33.53s.84.35,1.21.54a3,3,0,0,1,.8.72,1.38,1.38,0,0,1,.28.78,4.46,4.46,0,0,1-.06.79c0,.22-.07.41-.11.56s-.07.44-.09.64,0,.42,0,.64Z"/><path class="cls-3" d="M210,50.37a34.68,34.68,0,0,0,3.48-1.63q1.66-.89,3.36-2a32.34,32.34,0,0,0,3.05-2.21c1-.8,1.92-1.65,2.83-2.54a28.29,28.29,0,0,0,2.45-2.66c.78-1,1.5-1.93,2.18-2.94a28.85,28.85,0,0,0,1.72-3,28.17,28.17,0,0,0,1.33-3.16h-.59a2.12,2.12,0,0,1-.54-.06h-1c-.52,0-1,0-1.58.06l-1.58.11a5.42,5.42,0,0,1-.82.17,5.36,5.36,0,0,1-.76,0l-.77.12a5.76,5.76,0,0,1-.7.05c-.3.08-.57.13-.79.17a3.91,3.91,0,0,1-.68.06l-.68.11a4.42,4.42,0,0,1-.56.05,6.09,6.09,0,0,1-1.25.2l-1,0a8.53,8.53,0,0,1-1.27-.09,4.81,4.81,0,0,1-1-.25,9.55,9.55,0,0,1-1-.33,3,3,0,0,1-.76-.45,4.73,4.73,0,0,1-.74-.39,1.61,1.61,0,0,1-.5-.51,1.27,1.27,0,0,1-.4-.33.5.5,0,0,1-.11-.28.54.54,0,0,1,.05-.22,1.49,1.49,0,0,1,.23-.29.67.67,0,0,1,.28-.08,5,5,0,0,1,.62,0c.57.11,1.15.21,1.76.28s1.2.13,1.8.17a14.8,14.8,0,0,0,1.7.14q.9,0,1.86,0h1.7a12.55,12.55,0,0,0,1.64-.11c.56,0,1.11,0,1.63-.06a14,14,0,0,0,1.64-.22,5.16,5.16,0,0,0,.79-.06l.85-.11.85-.11c.3,0,.62-.1,1-.17.56-.07,1.17-.17,1.81-.28s1.31-.24,2-.39a.91.91,0,0,0,.23,0l.28-.08h.51a2.27,2.27,0,0,1,1.38.36,1.22,1.22,0,0,1,.48,1,1.41,1.41,0,0,1-.08.44,1.74,1.74,0,0,1-.26.45c-.07.11-.14.21-.19.31l-.2.3a1.8,1.8,0,0,1-.14.31l-.15.25A3.68,3.68,0,0,0,235,31a3.39,3.39,0,0,1-.22.39c-.08.15-.15.29-.23.42a.71.71,0,0,0-.11.37c-.19.29-.36.58-.51.84s-.28.5-.4.72l.82.09c.25,0,.5,0,.77.08a6.45,6.45,0,0,1,.67,0,6,6,0,0,0,.62,0,6.05,6.05,0,0,0,1,.14c.36,0,.77,0,1.22,0h1.13a8.34,8.34,0,0,0,1.35-.11,13.63,13.63,0,0,0,1.5-.08c.55-.06,1.18-.14,1.89-.25V25.92a1.71,1.71,0,0,0-.19-.39c-.1-.15-.18-.3-.26-.45l-1.1-.89-.88-.73-.76-.45-.65-.39a3.15,3.15,0,0,1-.53-.22.85.85,0,0,1-.31-.28.42.42,0,0,1-.26-.23.67.67,0,0,1-.08-.33.3.3,0,0,1,.08-.17,2.85,2.85,0,0,1,.26-.28A.82.82,0,0,1,240,21a1.34,1.34,0,0,1,.48-.08,2,2,0,0,1,.34,0l.45.08a3,3,0,0,1,.59.06,5,5,0,0,0,.71.05l1.38.34,1.44.33,1.3.53c.42.17.83.35,1.25.54a4,4,0,0,1,.76.72,1.23,1.23,0,0,1,.31.78,4.46,4.46,0,0,1-.06.79,4.42,4.42,0,0,0-.05.56,2.24,2.24,0,0,0-.14.64c0,.21,0,.42,0,.64V41.25c0,.33,0,.67,0,1s-.05.67-.09,1a8.54,8.54,0,0,1-.05,1,8.43,8.43,0,0,0-.06,1c-.11.74-.21,1.44-.28,2.09s-.17,1.26-.28,1.82-.35,1.2-.48,1.71a12.62,12.62,0,0,1-.43,1.31,4.81,4.81,0,0,1-.59.9.76.76,0,0,1-.54.28.68.68,0,0,1-.73-.51,4.64,4.64,0,0,1-.23-.53,3.82,3.82,0,0,1-.17-.75,2.29,2.29,0,0,1-.22-.73,6,6,0,0,1-.06-.9,5.53,5.53,0,0,1-.06-.84V44.77a7.4,7.4,0,0,1-.87.17l-.71.11-.7.11a3.21,3.21,0,0,1-.6.06l-.59.17-.54.11-.45.11a1.55,1.55,0,0,1-.39.06c-.34.11-.64.19-.88.25a7.36,7.36,0,0,0-1.3.22c-.21,0-.42,0-.65,0a8.45,8.45,0,0,1-1.16-.08,7.17,7.17,0,0,1-1-.25,5.65,5.65,0,0,1-.93-.29,2.91,2.91,0,0,1-.77-.44,3.59,3.59,0,0,1-.76-.37,1.35,1.35,0,0,1-.48-.47,1.12,1.12,0,0,1-.37-.31.52.52,0,0,1-.08-.25.74.74,0,0,1,.05-.28,1.49,1.49,0,0,1,.23-.28,1.06,1.06,0,0,1,.34-.08,3.89,3.89,0,0,1,.51,0l.82.08.76.09.68,0a5.85,5.85,0,0,0,.62,0,5.25,5.25,0,0,0,1.07.14c.42,0,.85,0,1.3,0l1.22,0c.47,0,1-.06,1.55-.14a15.44,15.44,0,0,0,1.81-.11l2.31-.28V35.65a4.47,4.47,0,0,1-.73.17l-.62.11-.57.12a3.25,3.25,0,0,1-.51.05,2,2,0,0,1-.48.17,2.1,2.1,0,0,1-.48.06,2.66,2.66,0,0,0-.39.11,1,1,0,0,1-.34.05,3.05,3.05,0,0,1-.71.23,4,4,0,0,1-.59.05,2,2,0,0,1-.65.12h-.54a9.52,9.52,0,0,1-1.66-.14,5.81,5.81,0,0,1-1.44-.48,6.93,6.93,0,0,1-1.16-.59,3.12,3.12,0,0,1-.76-.64c-.53.82-1.06,1.6-1.59,2.35s-1.05,1.45-1.58,2.12a26.18,26.18,0,0,1-1.75,2,22.82,22.82,0,0,1-1.86,1.71q-1.31,1.11-2.55,2A23.94,23.94,0,0,1,221,46.9c-.9.56-1.75,1.06-2.54,1.51s-1.55.84-2.26,1.17a17.35,17.35,0,0,1-2,1c-.65.26-1.21.47-1.7.62s-1,.31-1.3.39a4.27,4.27,0,0,1-.73.11,1.69,1.69,0,0,1-.88-.17.55.55,0,0,1-.25-.5.45.45,0,0,1,.17-.34A2,2,0,0,1,210,50.37Zm25.2,1.17h.34a2,2,0,0,0,.34,0,2.36,2.36,0,0,1,.4,0l.7.11.76.11.68.31a4.47,4.47,0,0,1,.62.3,2.3,2.3,0,0,1,.46.48,1,1,0,0,1,.17.59.73.73,0,0,1-.06.3.65.65,0,0,0-.06.2l-.17.25a.34.34,0,0,0-.05.14,10.51,10.51,0,0,1,1.78.5l1.78.73c.52.34,1,.69,1.49,1.06a8.78,8.78,0,0,1,1.27,1.24c.38.44.73.89,1.05,1.34a6.37,6.37,0,0,1,.76,1.4,8.15,8.15,0,0,1,.51,1.51,6.3,6.3,0,0,1,.17,1.4,7,7,0,0,1-.23,1.79,16.38,16.38,0,0,1-.56,1.67,11,11,0,0,1-1.05,1.6A14.3,14.3,0,0,1,245,69.94a12.38,12.38,0,0,1-3.5,2.13,12.84,12.84,0,0,1-2.23.59,14.15,14.15,0,0,1-2.35.19,14.43,14.43,0,0,1-2.43-.19,11.44,11.44,0,0,1-2.14-.59,11,11,0,0,1-2-.92,8.64,8.64,0,0,1-1.56-1.21,7.88,7.88,0,0,1-1.41-1.42,7.26,7.26,0,0,1-.9-1.6,6.08,6.08,0,0,1-.62-1.67,8.63,8.63,0,0,1-.17-1.79,8.11,8.11,0,0,1,.14-1.52,6.66,6.66,0,0,1,.48-1.56,7.18,7.18,0,0,1,.73-1.4,8,8,0,0,1,1.08-1.29,12.84,12.84,0,0,1,1.27-1.09c.47-.35,1-.7,1.49-1s1.07-.5,1.62-.73a11.31,11.31,0,0,1,1.83-.56l.28,0a.67.67,0,0,0,.34-.14c.08,0,.14,0,.2-.14a1.23,1.23,0,0,0,.14-.36.27.27,0,0,0-.06-.14l-.11-.19a.58.58,0,0,1-.28-.06.35.35,0,0,1-.17-.17.74.74,0,0,1-.28-.14.54.54,0,0,1-.17-.2.26.26,0,0,1-.2-.19,1.48,1.48,0,0,1,0-.31.86.86,0,0,1,0-.17.49.49,0,0,1,.2-.22.66.66,0,0,1,.25-.11Zm8.42,11.92A6.22,6.22,0,0,0,243.4,62c-.11-.47-.24-.92-.39-1.37a8.19,8.19,0,0,0-.68-1.18c-.27-.37-.51-.72-.74-1.06s-.75-.51-1.13-.75l-1.07-.7c-.45-.15-.88-.27-1.27-.37a5.5,5.5,0,0,0-1.22-.14,6.33,6.33,0,0,0-1.27.14,8.17,8.17,0,0,0-1.21.37,9.32,9.32,0,0,0-1.22.7,7,7,0,0,0-1,.81,6.62,6.62,0,0,0-.87,1.06,5.35,5.35,0,0,0-.59,1.17,4.81,4.81,0,0,0-.46,1.37,9.38,9.38,0,0,0-.11,1.38,11.56,11.56,0,0,0,.11,1.59,4.11,4.11,0,0,0,.46,1.37,4,4,0,0,0,.62,1.2,8.58,8.58,0,0,0,.9,1,7.13,7.13,0,0,0,1,.81,5.28,5.28,0,0,0,1.16.59,6.31,6.31,0,0,0,1.21.33,7,7,0,0,0,1.27.11,6.15,6.15,0,0,0,1.22-.11,10.89,10.89,0,0,0,1.27-.33,7.73,7.73,0,0,0,1.07-.59,13.87,13.87,0,0,0,1.13-.81c.23-.34.47-.68.74-1a5.77,5.77,0,0,0,.68-1.2,10.71,10.71,0,0,0,.39-1.37A7.45,7.45,0,0,0,243.57,63.46Z"/><path class="cls-3" d="M260.46,75.82a6.9,6.9,0,0,0,1-.67,7.83,7.83,0,0,0,.93-.9,7.46,7.46,0,0,0,.88-1.17,5.49,5.49,0,0,0,.54-1.23,4.71,4.71,0,0,1-1.13.11,2.76,2.76,0,0,1-2.27-1,3.87,3.87,0,0,1-.79-2.49,3.1,3.1,0,0,1,.91-2.27,2.86,2.86,0,0,1,2.09-.92,3.42,3.42,0,0,1,2.68,1.09,4.39,4.39,0,0,1,1,3,7.81,7.81,0,0,1-.62,3.52A10.74,10.74,0,0,1,264.25,75a16.11,16.11,0,0,1-1.53,1.35,5,5,0,0,1-1.41.78c-.6.26-1,.2-1.24-.17S259.93,76.15,260.46,75.82Z"/><path class="cls-3" d="M281.87,51.43a61.24,61.24,0,0,0,6.78-4.76,50.44,50.44,0,0,0,5.6-5.25A59.49,59.49,0,0,0,298.6,36a37.32,37.32,0,0,0,3.27-5.57h-1.81l-2.06.11-1.72.12a5.74,5.74,0,0,1-.76.16,4.44,4.44,0,0,1-.71.06l-.71.11a3,3,0,0,1-.59.06c-.41.11-.79.19-1.13.25a5.48,5.48,0,0,1-1,.08,5,5,0,0,1-1,.14l-.79,0a10.06,10.06,0,0,1-1.27-.08,5.4,5.4,0,0,1-1-.25c-.41-.12-.76-.23-1-.34a2.51,2.51,0,0,1-.76-.45,4.33,4.33,0,0,1-.74-.39,1.74,1.74,0,0,1-.51-.5,1.13,1.13,0,0,1-.39-.34.44.44,0,0,1,.17-.72,1.72,1.72,0,0,1,.9-.17c.6.11,1.21.2,1.81.28s1.24.13,1.92.16a14.66,14.66,0,0,0,1.84.14c.65,0,1.34,0,2.06,0,1.28,0,2.5,0,3.67-.11a26.57,26.57,0,0,0,3.28-.39l1.47-.23c.48-.07,1-.16,1.58-.28s1-.15,1.49-.25l1.56-.3.82,0a1.6,1.6,0,0,1,.7.2,1.91,1.91,0,0,1,.45.5,1.72,1.72,0,0,1,.23.62,1.58,1.58,0,0,1-.06.47,1,1,0,0,1-.17.37,6.18,6.18,0,0,1-.36.53,5,5,0,0,0-.37.53c-.57.9-1.11,1.74-1.64,2.55s-1.05,1.55-1.58,2.26-1.2,1.54-1.78,2.27-1.16,1.42-1.72,2.09c.26.23.54.45.85.68l.9.67.82.67a8.52,8.52,0,0,0,.87.61,3.17,3.17,0,0,0,.77.65,3.42,3.42,0,0,0,.82.36l.62.31a2,2,0,0,0,.62.19l.76.37.88.42.9.69c.3.25.62.5,1,.76a7.6,7.6,0,0,0,.68.9,5.31,5.31,0,0,1,.68,1,8.07,8.07,0,0,1,.45,1.2,4.22,4.22,0,0,1,.17,1.15,1.06,1.06,0,0,1-.25.75.83.83,0,0,1-.6.25,1.85,1.85,0,0,1-.62-.11,2.62,2.62,0,0,1-.79-.45,6.18,6.18,0,0,1-1.1-.64c-.4-.28-.84-.62-1.33-1a16.53,16.53,0,0,1-1.7-1.25c-.6-.51-1.24-1.07-1.92-1.71s-1.55-1.21-2.4-2-1.76-1.56-2.74-2.46l-.79.78c-.87.86-1.7,1.66-2.51,2.38s-1.61,1.39-2.4,2-1.7,1.27-2.49,1.79-1.52,1-2.2,1.4-1.43.83-2,1.14-1.13.57-1.58.76-1,.39-1.35.5a2.86,2.86,0,0,1-.74.17H282a.62.62,0,0,1-.29-.06.28.28,0,0,1-.25-.11.52.52,0,0,1-.09-.33.37.37,0,0,1,0-.23.39.39,0,0,1,.14-.22l.17-.11a.09.09,0,0,1,.05-.09Zm28.25,17.51c.83,0,1.59,0,2.29,0s1.33-.07,1.89-.14l1.3-.22.48-.12.54-.11a3.53,3.53,0,0,1,.62-.28,4.1,4.1,0,0,0,.56-.22,1.91,1.91,0,0,1,.54-.17,3.76,3.76,0,0,1,.71-.06l.62,0,1,.09a4.56,4.56,0,0,1,.9.08,6.52,6.52,0,0,1,.91.25,5.64,5.64,0,0,1,.9.28l.74.34a1.45,1.45,0,0,1,.45.44,1.23,1.23,0,0,1,.17.62.66.66,0,0,1-.26.5,2.49,2.49,0,0,1-.65.4,6.75,6.75,0,0,1-1.13.25,11.15,11.15,0,0,1-1.35.08H300.86a4.62,4.62,0,0,1-1.47-.22,2.49,2.49,0,0,1-1.13-.73,2.65,2.65,0,0,1-.85-1.09,3.65,3.65,0,0,1-.23-1.32V60.21a1.87,1.87,0,0,0-.14-.78,1.6,1.6,0,0,0-.31-.51,4.12,4.12,0,0,1-.59-.44L295.6,58a3.91,3.91,0,0,0-.45-.39,4.73,4.73,0,0,1-.4-.34,2.36,2.36,0,0,1-.45-.22l-.34-.22a3.36,3.36,0,0,1-.39-.23,1.82,1.82,0,0,1-.29-.22c-.18-.08-.35-.15-.5-.23a.74.74,0,0,1-.34-.28.34.34,0,0,1-.23-.16.61.61,0,0,1-.06-.28.69.69,0,0,1,.06-.26.92.92,0,0,1,.23-.3.75.75,0,0,1,.34-.12,5.11,5.11,0,0,1,.79-.05l.39,0c.15,0,.32,0,.51.08a3,3,0,0,1,.62.06,4.4,4.4,0,0,0,.68.05l.65.2c.21.05.42.12.65.19a7.25,7.25,0,0,1,.71.17,5.07,5.07,0,0,0,.7.17c.45.19.87.37,1.25.56s.73.37,1.07.56a2.34,2.34,0,0,1,.73.7,1.32,1.32,0,0,1,.23.7,4,4,0,0,1-.06.72,3.52,3.52,0,0,0-.05.62c0,.22-.07.44-.09.64s0,.42,0,.65v6.88a2,2,0,0,0,.06.5,1.15,1.15,0,0,0,.17.39.64.64,0,0,0,.37.25,1.74,1.74,0,0,0,.59.09Zm11.24-20.53c0,.71,0,1.42-.08,2.12s-.11,1.4-.14,2.07-.23,1.44-.34,2.07-.23,1.23-.34,1.79-.35,1.13-.48,1.6a9.18,9.18,0,0,1-.42,1.2,3.13,3.13,0,0,1-.54.87.75.75,0,0,1-.48.25.78.78,0,0,1-.68-.31,2.82,2.82,0,0,1-.39-1,5.61,5.61,0,0,1-.32-1.42c0-.55-.08-1.15-.08-1.82V25.92a1.81,1.81,0,0,0-.2-.39,5.05,5.05,0,0,1-.25-.45l-1.1-.89-.88-.73-.76-.45-.65-.39a3,3,0,0,1-.54-.22,1.05,1.05,0,0,1-.31-.28.41.41,0,0,1-.25-.23.68.68,0,0,1-.09-.33.4.4,0,0,1,.09-.23,2.63,2.63,0,0,1,.25-.27l.34-.12a1.5,1.5,0,0,1,.4-.05,1.84,1.84,0,0,1,.33,0l.46.08a3.19,3.19,0,0,1,.59.06,4.93,4.93,0,0,0,.71.05l1.38.34,1.44.33,1.3.53c.41.17.83.35,1.24.54a4.1,4.1,0,0,1,.77.72,1.29,1.29,0,0,1,.31.78,4.46,4.46,0,0,1-.06.79,3.25,3.25,0,0,0-.06.56,3.21,3.21,0,0,0-.14.64c0,.21,0,.42,0,.64Z"/><path class="cls-3" d="M339.84,50.31c1.09-.67,2.15-1.38,3.19-2.13s2.08-1.54,3.13-2.4,1.9-1.59,2.86-2.43a34.92,34.92,0,0,0,2.68-2.61,35,35,0,0,0,2.43-2.63c.75-.89,1.49-1.8,2.2-2.74s1.26-1.78,1.84-2.65,1.14-1.76,1.67-2.66H358c-.34,0-.72,0-1.16.06l-1.32.11-.82.11-.77.11-.73.11a4.59,4.59,0,0,1-.68.06c-.3.07-.57.13-.82.17a4.7,4.7,0,0,1-.76.05l-.71.12a4.4,4.4,0,0,1-.65.05,10,10,0,0,1-1.18.14l-.85,0a8.45,8.45,0,0,1-1.16-.08,6.09,6.09,0,0,1-1-.26q-.57-.16-1-.33a2.66,2.66,0,0,1-.79-.45,3,3,0,0,1-.82-.39,1.74,1.74,0,0,1-.48-.5.77.77,0,0,1-.34-.34.83.83,0,0,1-.06-.28.53.53,0,0,1,.23-.45,1.52,1.52,0,0,1,.85-.17,5.65,5.65,0,0,0,.93.17l1,.11,1,.12c.34,0,.68.05,1,.05a18.47,18.47,0,0,0,1.86.14q1,0,2,0c1.28,0,2.49,0,3.64-.11a33.15,33.15,0,0,0,3.3-.39c.95-.12,1.92-.27,2.91-.48s2-.42,3-.64h.17a.54.54,0,0,0,.19,0,.6.6,0,0,1,.2,0,.42.42,0,0,0,.14.09l.14,0a1.09,1.09,0,0,0,.23.09l.22,0,.37.22a1.8,1.8,0,0,1,.31.22,1.37,1.37,0,0,1,.17.37,1.42,1.42,0,0,1,.06.42,5,5,0,0,1-.14.58c-.06.17-.11.31-.14.42s-.23.36-.34.51a3.39,3.39,0,0,1-.34.39c-.49.78-1,1.56-1.53,2.32s-1.07,1.5-1.63,2.21-1.29,1.54-1.93,2.26l-1.92,2.16a3.29,3.29,0,0,0,.71.61l.82.56.76.65a4.61,4.61,0,0,0,.82.53,5.9,5.9,0,0,0,.88.64,2.22,2.22,0,0,0,.76.31l.65.31.65.25a1.61,1.61,0,0,0,.34.17l.79.28.85.5c.3.19.6.39.9.61a7.83,7.83,0,0,1,.9.93c.27.31.55.66.85,1s.36.91.51,1.37a5,5,0,0,1,.23,1.54,1.11,1.11,0,0,1-.23.76.7.7,0,0,1-.51.25A3.49,3.49,0,0,1,367,50a23,23,0,0,1-2.43-1.65c-.94-.67-2.14-1.63-3.58-2.86s-3.14-2.72-5.06-4.47c-.9,1-1.8,1.85-2.69,2.65s-1.76,1.54-2.62,2.22-1.76,1.39-2.57,1.95a25.25,25.25,0,0,1-2.35,1.46,16.29,16.29,0,0,1-2.09,1.34,7,7,0,0,1-1.75.67,11,11,0,0,1-1.64.45.79.79,0,0,1-.36,0,.27.27,0,0,1-.2-.2.35.35,0,0,1-.23-.17.56.56,0,0,1-.05-.28.68.68,0,0,1,.11-.36A2,2,0,0,1,339.84,50.31Zm26.38,1.23h.34a2,2,0,0,0,.34,0,2.36,2.36,0,0,1,.4,0l.7.11.76.11.68.31a4.47,4.47,0,0,1,.62.3,2,2,0,0,1,.45.48,1,1,0,0,1,.17.59.73.73,0,0,1-.05.3.65.65,0,0,0-.06.2l-.17.25a.24.24,0,0,0,0,.14,10.15,10.15,0,0,1,1.77.5c.59.23,1.18.47,1.79.73s1,.69,1.49,1.06a8.78,8.78,0,0,1,1.27,1.24c.38.44.73.89,1.05,1.34a6.37,6.37,0,0,1,.76,1.4,8.15,8.15,0,0,1,.51,1.51,6.3,6.3,0,0,1,.17,1.4,7,7,0,0,1-.23,1.79,16.38,16.38,0,0,1-.56,1.67,11,11,0,0,1-1.05,1.6,14.3,14.3,0,0,1-1.27,1.42,12.38,12.38,0,0,1-3.5,2.13,12.84,12.84,0,0,1-2.23.59,14.24,14.24,0,0,1-2.35.19,14.43,14.43,0,0,1-2.43-.19,11.23,11.23,0,0,1-2.14-.59,11,11,0,0,1-1.95-.92,8.64,8.64,0,0,1-1.56-1.21,7.88,7.88,0,0,1-1.41-1.42,6.88,6.88,0,0,1-.9-1.6,6.08,6.08,0,0,1-.62-1.67,8.63,8.63,0,0,1-.17-1.79,8.11,8.11,0,0,1,.14-1.52,6.66,6.66,0,0,1,.48-1.56,7.18,7.18,0,0,1,.73-1.4,8,8,0,0,1,1.08-1.29,12.84,12.84,0,0,1,1.27-1.09c.47-.35,1-.7,1.49-1s1.07-.5,1.61-.73a11.76,11.76,0,0,1,1.84-.56l.28,0a.67.67,0,0,0,.34-.14c.08,0,.14,0,.2-.14a1.23,1.23,0,0,0,.14-.36.27.27,0,0,0-.06-.14l-.11-.19a.58.58,0,0,1-.28-.06.35.35,0,0,1-.17-.17.74.74,0,0,1-.28-.14.46.46,0,0,1-.17-.2.26.26,0,0,1-.2-.19,1.48,1.48,0,0,1,0-.31.86.86,0,0,1,0-.17.49.49,0,0,1,.2-.22.59.59,0,0,1,.25-.11Zm8.42,11.92a6.22,6.22,0,0,0-.17-1.43c-.11-.47-.25-.92-.4-1.37a7.29,7.29,0,0,0-.67-1.18c-.27-.37-.51-.72-.74-1.06-.38-.26-.75-.51-1.13-.75l-1.07-.7c-.45-.15-.88-.27-1.27-.37a5.5,5.5,0,0,0-1.22-.14,6.25,6.25,0,0,0-1.27.14,8.17,8.17,0,0,0-1.21.37,9.32,9.32,0,0,0-1.22.7,6.48,6.48,0,0,0-1,.81,6.62,6.62,0,0,0-.87,1.06,5.39,5.39,0,0,0-.6,1.17,5.12,5.12,0,0,0-.45,1.37,9.38,9.38,0,0,0-.11,1.38,11.56,11.56,0,0,0,.11,1.59,4.33,4.33,0,0,0,.45,1.37,4,4,0,0,0,.63,1.2,8.58,8.58,0,0,0,.9,1,7.13,7.13,0,0,0,1,.81,5.28,5.28,0,0,0,1.16.59,6.31,6.31,0,0,0,1.21.33,7,7,0,0,0,1.27.11,6.15,6.15,0,0,0,1.22-.11,10.89,10.89,0,0,0,1.27-.33,7.73,7.73,0,0,0,1.07-.59c.38-.24.75-.52,1.13-.81.23-.34.47-.68.74-1a5.33,5.33,0,0,0,.67-1.2,10.67,10.67,0,0,0,.4-1.37A7.45,7.45,0,0,0,374.64,63.46Zm5.2-22.21c0,.33,0,.67,0,1s-.05.67-.09,1,0,.67-.05,1a8.43,8.43,0,0,0-.06,1c-.11.74-.21,1.44-.28,2.09s-.17,1.26-.28,1.82-.35,1.2-.48,1.71a12.62,12.62,0,0,1-.43,1.31,4.81,4.81,0,0,1-.59.9.76.76,0,0,1-.54.28.68.68,0,0,1-.73-.51,4.64,4.64,0,0,1-.23-.53,3.82,3.82,0,0,1-.17-.75,2.29,2.29,0,0,1-.22-.73,6,6,0,0,1-.06-.9,5.53,5.53,0,0,1-.06-.84V38.62c-.26.07-.51.13-.73.17l-.68.11-.56.11a2.5,2.5,0,0,1-.51.06,1.94,1.94,0,0,1-.48.16,2.1,2.1,0,0,1-.48.06l-.43.11a1.23,1.23,0,0,1-.36.06,2.87,2.87,0,0,0-.37.11.81.81,0,0,1-.31.06l-.34.08-.28,0a1.8,1.8,0,0,1-.62.11h-.57a8.45,8.45,0,0,1-1.16-.08,5.86,5.86,0,0,1-1-.26,6.33,6.33,0,0,1-.91-.28,4,4,0,0,1-.85-.44,3.47,3.47,0,0,1-.67-.37,1.54,1.54,0,0,1-.45-.47,1,1,0,0,1-.37-.31.56.56,0,0,1-.09-.31.46.46,0,0,1,.06-.22.61.61,0,0,1,.23-.22.89.89,0,0,1,.31-.09,3.7,3.7,0,0,1,.53,0l1.56.12c.47,0,.91,0,1.33,0a4.92,4.92,0,0,0,1,.14c.38,0,.79,0,1.25,0h1.12A9.67,9.67,0,0,0,372,37c.45,0,1,0,1.55-.06s1.24-.11,2-.22V25.92a1.71,1.71,0,0,0-.19-.39c-.1-.15-.18-.3-.26-.45l-1.1-.89-.88-.73-.76-.45-.65-.39a3.73,3.73,0,0,1-.54-.22,1.05,1.05,0,0,1-.31-.28.43.43,0,0,1-.25-.23.68.68,0,0,1-.09-.33.34.34,0,0,1,.09-.17c.06-.07.14-.17.25-.28a1.11,1.11,0,0,1,.26-.14,1.34,1.34,0,0,1,.48-.08l.34,0,.45.08a3,3,0,0,1,.59.06,5,5,0,0,0,.71.05l1.38.34,1.44.33,1.3.53c.42.17.83.35,1.25.54a4,4,0,0,1,.76.72,1.23,1.23,0,0,1,.31.78,4.46,4.46,0,0,1-.06.79,4.42,4.42,0,0,0-.05.56,2.68,2.68,0,0,0-.15.64c0,.21,0,.42,0,.64Z"/><path class="cls-3" d="M412.1,39.63c-.46.63-1,1.26-1.53,1.9s-1.21,1.28-1.92,2-1.51,1.44-2.26,2.09-1.51,1.28-2.26,1.88-1.61,1.21-2.34,1.73a23.43,23.43,0,0,1-2.12,1.34,12.13,12.13,0,0,1-1.92,1,4.34,4.34,0,0,1-1.36.27c-.19,0-.3,0-.34-.08a.58.58,0,0,1-.06-.31,1.32,1.32,0,0,1,.09-.42,1.79,1.79,0,0,1,.42-.58,3.74,3.74,0,0,1,.6-.59,8.94,8.94,0,0,1,.87-.65c.76-.52,1.52-1.1,2.29-1.73s1.55-1.34,2.34-2.12,1.51-1.47,2.27-2.27,1.48-1.65,2.2-2.54,1.33-1.67,1.95-2.55,1.19-1.78,1.72-2.71.86-1.79,1.21-2.69a21.49,21.49,0,0,0,.88-2.68.43.43,0,0,0,.06-.17.23.23,0,0,1,0-.11.21.21,0,0,1,.08-.11v-.34a1.51,1.51,0,0,0-.17-.67,4.23,4.23,0,0,0-.4-.67,3.75,3.75,0,0,0-.79-.7l-1.18-.87a1.65,1.65,0,0,1-.62-.45.66.66,0,0,1-.17-.44.34.34,0,0,1,.08-.26,1.76,1.76,0,0,1,.26-.19h.39l.28,0,.34,0,.17,0a1.14,1.14,0,0,0,.28,0H412a.39.39,0,0,0,.14.08.38.38,0,0,1,.15.09l.16,0a.4.4,0,0,0,.17,0,2.67,2.67,0,0,0,.57.2l.85.19.42.2.48.2a2.7,2.7,0,0,1,.48.16l.54.23c.26.22.52.44.79.64l.79.64a3.74,3.74,0,0,1,.54.82,1.88,1.88,0,0,1,.19.81,2.72,2.72,0,0,1-.11.75c-.08.28-.17.57-.28.87a4.6,4.6,0,0,0-.28.53c-.08.17-.15.35-.23.53a3.52,3.52,0,0,0-.31.5c-.1.19-.2.38-.31.56s-.23.44-.34.65-.23.4-.34.58-.23.39-.37.59a4.23,4.23,0,0,0-.31.59,5.92,5.92,0,0,0-.48.64,6.27,6.27,0,0,1-.42.59c-.11.19-.24.37-.37.56s-.25.35-.37.5a15.3,15.3,0,0,0,1.5,1.51,13.53,13.53,0,0,0,1.55,1.18,8.26,8.26,0,0,0,1.56,1,7.92,7.92,0,0,0,1.72.65,2.9,2.9,0,0,0,.34.19,3,3,0,0,1,.34.2,2,2,0,0,1,.45.16c.15.08.32.15.51.23l.88.67c.28.22.57.45.87.67s.52.6.76.9a10.21,10.21,0,0,1,.71,1c.11.33.23.69.34,1.06a4,4,0,0,1,.17,1.12.92.92,0,0,1-.31.75,1.36,1.36,0,0,1-.88.25,2.92,2.92,0,0,1-1-.19,4.83,4.83,0,0,1-1.15-.64,9.76,9.76,0,0,1-1.33-.9q-.7-.55-1.44-1.23c-.53-.45-1.08-.92-1.64-1.43s-1.13-1-1.7-1.59L414,41.44C413.38,40.87,412.74,40.26,412.1,39.63Zm12.59,11.91H425a1.87,1.87,0,0,0,.34,0,2.42,2.42,0,0,1,.4,0l.7.11.77.11.68.31a5.09,5.09,0,0,1,.62.3,2.24,2.24,0,0,1,.45.48,1,1,0,0,1,.17.59.73.73,0,0,1-.06.3.65.65,0,0,0-.06.2l-.16.25a.27.27,0,0,0-.06.14,10.51,10.51,0,0,1,1.78.5c.58.23,1.18.47,1.78.73s1,.69,1.5,1.06a9.93,9.93,0,0,1,1.27,1.24c.37.44.72.89,1,1.34a6.37,6.37,0,0,1,.76,1.4,8.15,8.15,0,0,1,.51,1.51,5.76,5.76,0,0,1,.17,1.4,7,7,0,0,1-.22,1.79,16.48,16.48,0,0,1-.57,1.67,11.84,11.84,0,0,1-1,1.6,15.67,15.67,0,0,1-1.27,1.42,13.89,13.89,0,0,1-1.67,1.21,13.73,13.73,0,0,1-1.84.92,12.6,12.6,0,0,1-2.23.59,14,14,0,0,1-2.34.19,14.26,14.26,0,0,1-2.43-.19,11.33,11.33,0,0,1-2.15-.59,11,11,0,0,1-1.95-.92,8.56,8.56,0,0,1-1.55-1.21,7.06,7.06,0,0,1-2.32-3,6.08,6.08,0,0,1-.62-1.67,9.37,9.37,0,0,1-.17-1.79,9,9,0,0,1,.14-1.52,7.76,7.76,0,0,1,.48-1.56,6.72,6.72,0,0,1,.74-1.4,8,8,0,0,1,1.07-1.29A12.84,12.84,0,0,1,419,56.6c.47-.35,1-.7,1.5-1s1.06-.5,1.61-.73a11.31,11.31,0,0,1,1.83-.56l.29,0a.67.67,0,0,0,.33-.14.22.22,0,0,0,.2-.14,1,1,0,0,0,.14-.36.24.24,0,0,0-.05-.14l-.12-.19a.61.61,0,0,1-.28-.06.4.4,0,0,1-.17-.17.82.82,0,0,1-.28-.14.54.54,0,0,1-.17-.2.26.26,0,0,1-.2-.19,1.51,1.51,0,0,1,0-.31.66.66,0,0,1,0-.17.49.49,0,0,1,.2-.22.66.66,0,0,1,.25-.11Zm8.42,11.92a5.71,5.71,0,0,0-.17-1.43c-.11-.47-.24-.92-.39-1.37a8.19,8.19,0,0,0-.68-1.18c-.26-.37-.51-.72-.74-1.06s-.75-.51-1.12-.75l-1.08-.7c-.45-.15-.87-.27-1.27-.37a5.41,5.41,0,0,0-1.21-.14,6.17,6.17,0,0,0-1.27.14A8.31,8.31,0,0,0,424,57a8.57,8.57,0,0,0-1.21.7,6.48,6.48,0,0,0-1,.81,6.69,6.69,0,0,0-.88,1.06,5.84,5.84,0,0,0-.59,1.17,4.5,4.5,0,0,0-.45,1.37,8.22,8.22,0,0,0-.12,1.38,10.16,10.16,0,0,0,.12,1.59,3.88,3.88,0,0,0,.45,1.37,4,4,0,0,0,.62,1.2,9.56,9.56,0,0,0,.9,1,7.13,7.13,0,0,0,1,.81,5.51,5.51,0,0,0,1.16.59,6.41,6.41,0,0,0,1.22.33,6.88,6.88,0,0,0,1.27.11,6.05,6.05,0,0,0,1.21-.11,10.4,10.4,0,0,0,1.27-.33,8.43,8.43,0,0,0,1.08-.59c.37-.24.75-.52,1.12-.81s.48-.68.74-1a5.77,5.77,0,0,0,.68-1.2,10.71,10.71,0,0,0,.39-1.37A6.86,6.86,0,0,0,433.11,63.46Zm5.2-22.21c0,.33,0,.67,0,1s0,.67-.08,1a8.55,8.55,0,0,1-.06,1,8.43,8.43,0,0,0-.06,1c-.11.74-.2,1.44-.28,2.09s-.17,1.26-.28,1.82-.35,1.2-.48,1.71a12.77,12.77,0,0,1-.42,1.31,5.3,5.3,0,0,1-.6.9.76.76,0,0,1-.54.28.88.88,0,0,1-.45-.11.91.91,0,0,1-.28-.4,3.4,3.4,0,0,1-.22-.53,2.78,2.78,0,0,1-.17-.75,2.3,2.3,0,0,1-.23-.73,6,6,0,0,1-.06-.9,7.3,7.3,0,0,1-.05-.84V37.5a7.63,7.63,0,0,1-.91.17l-.79.11-.7.11a3.21,3.21,0,0,1-.6.06,4.86,4.86,0,0,1-.59.16l-.54.12-.45.11a1.55,1.55,0,0,1-.4.06c-.33.11-.63.19-.87.25a3.37,3.37,0,0,1-.65.08,2.74,2.74,0,0,1-.68.14c-.22,0-.45,0-.68,0a6.71,6.71,0,0,1-1.1-.09,5.26,5.26,0,0,1-1-.25,5.16,5.16,0,0,1-.94-.28,3,3,0,0,1-.76-.44,3.79,3.79,0,0,1-.73-.37,1.71,1.71,0,0,1-.46-.47.76.76,0,0,1-.33-.31.78.78,0,0,1-.06-.31.83.83,0,0,1,0-.22.61.61,0,0,1,.2-.28.38.38,0,0,1,.25-.08,3.75,3.75,0,0,1,.54,0l.79.08.79.08c.23,0,.44,0,.65,0s.42,0,.65,0a6.06,6.06,0,0,0,1.07.14c.42,0,.85,0,1.3,0l1.24,0c.49,0,1-.07,1.59-.14a14.7,14.7,0,0,0,1.83-.14l2.35-.31V25.92a2.42,2.42,0,0,0-.2-.39c-.1-.15-.18-.3-.26-.45l-1.1-.89-.87-.73-.76-.45-.65-.39a3,3,0,0,1-.54-.22.94.94,0,0,1-.31-.28.42.42,0,0,1-.26-.23.8.8,0,0,1-.08-.33.4.4,0,0,1,.08-.17,2.85,2.85,0,0,1,.26-.28.82.82,0,0,1,.25-.14,1.34,1.34,0,0,1,.48-.08,1.87,1.87,0,0,1,.34,0l.45.08a3.21,3.21,0,0,1,.6.06,4.79,4.79,0,0,0,.7.05l1.39.34,1.44.33c.45.19.88.37,1.3.53l1.24.54a4,4,0,0,1,.76.72,1.23,1.23,0,0,1,.31.78,5.83,5.83,0,0,1,0,.79,3.25,3.25,0,0,0-.06.56,2.64,2.64,0,0,0-.14.64c0,.21,0,.42,0,.64Z"/><path class="cls-4" d="M166.4,89.35A3.91,3.91,0,0,1,169.76,91,6,6,0,0,1,171,94.56c0,.54-.14.8-.42.8h-7.39a4.06,4.06,0,0,0,1.05,3.07,3.43,3.43,0,0,0,2.45,1,3,3,0,0,0,2.24-.8A5.21,5.21,0,0,0,170,97.18c.16-.36.39-.46.69-.32a.54.54,0,0,1,.22.78,6,6,0,0,1-1.66,2.1,4.4,4.4,0,0,1-2.85.83A4.33,4.33,0,0,1,162.83,99a5.82,5.82,0,0,1-1.31-3.76,6.7,6.7,0,0,1,1.3-4.09A4.21,4.21,0,0,1,166.4,89.35Zm2.47,4.92c.26,0,.39-.14.39-.41a4.09,4.09,0,0,0-.73-2.47,2.55,2.55,0,0,0-2.18-1,2.75,2.75,0,0,0-2.34,1.2,4.47,4.47,0,0,0-.87,2.68Z"/><path class="cls-4" d="M207.6,102.27a1,1,0,0,1-.19.7.79.79,0,0,0-.18.29c0,.13.2.19.61.17a1.62,1.62,0,0,0,1-.54,4,4,0,0,0,.94-1.54l.69-1.84-3.11-8.32a1,1,0,0,0-1-.58h-.59c-.41,0-.61-.16-.61-.48s.2-.51.61-.51h4.51c.4,0,.61.17.61.51s-.21.48-.61.48h-.84c-.5,0-.68.2-.54.61l2.23,6.42,2.35-6.42c.15-.41,0-.61-.36-.61h-.84c-.41,0-.61-.16-.61-.48s.2-.51.61-.51h4c.41,0,.62.17.62.51s-.21.48-.62.48h-.49a1.38,1.38,0,0,0-1.07.58l-3.7,10.13a6.56,6.56,0,0,1-1.59,2.39,3,3,0,0,1-2,.84,2.18,2.18,0,0,1-1.52-.51,1.67,1.67,0,0,1-.56-1.28,1.42,1.42,0,0,1,.37-1,1.12,1.12,0,0,1,.83-.37,1.17,1.17,0,0,1,.72.23A.79.79,0,0,1,207.6,102.27Z"/><path class="cls-4" d="M255.41,89.35A3.94,3.94,0,0,1,258.78,91,6,6,0,0,1,260,94.56c0,.54-.14.8-.41.8h-7.4a4,4,0,0,0,1.06,3.07,3.41,3.41,0,0,0,2.44,1,3,3,0,0,0,2.24-.8A5,5,0,0,0,259,97.18c.17-.36.39-.46.69-.32a.53.53,0,0,1,.22.78,6.12,6.12,0,0,1-1.65,2.1,4.45,4.45,0,0,1-2.86.83A4.3,4.3,0,0,1,251.85,99a5.76,5.76,0,0,1-1.31-3.76,6.69,6.69,0,0,1,1.29-4.09A4.21,4.21,0,0,1,255.41,89.35Zm2.47,4.92c.26,0,.39-.14.39-.41a4,4,0,0,0-.73-2.47,2.55,2.55,0,0,0-2.18-1,2.75,2.75,0,0,0-2.34,1.2,4.47,4.47,0,0,0-.87,2.68Z"/><path class="cls-4" d="M302.27,93.16l-2.3,6.9c-.12.33-.27.49-.47.49s-.37-.16-.46-.49l-2.82-8.65c-.18-.53-.46-.8-.83-.8h-.64c-.41,0-.61-.16-.61-.48s.2-.51.61-.51h4.09c.41,0,.61.17.61.51s-.2.48-.61.48h-.78q-.35,0-.42.12a1.69,1.69,0,0,0,.12.68l1.94,6.06,2-6.13c-.18-.49-.45-.73-.81-.73h-.64c-.4,0-.61-.16-.61-.48s.21-.51.61-.51h4.09c.41,0,.62.17.62.51s-.21.48-.62.48h-.78q-.35,0-.42.12a1.6,1.6,0,0,0,.13.68l1.93,6.06,1.93-6c.14-.37.15-.61.07-.71s-.47-.16-1.12-.16c-.41,0-.61-.16-.61-.48s.2-.51.61-.51h3.65c.41,0,.61.17.61.51s-.2.48-.61.48a2.23,2.23,0,0,0-1.06.15,6,6,0,0,0-.53,1.33l-2.67,8c-.11.33-.27.49-.47.49s-.36-.16-.46-.49Z"/><path class="cls-4" d="M349.07,89.35A3.91,3.91,0,0,1,352.44,91a6,6,0,0,1,1.19,3.57c0,.54-.14.8-.42.8h-7.39a4.06,4.06,0,0,0,1.05,3.07,3.43,3.43,0,0,0,2.45,1,3,3,0,0,0,2.24-.8,5.21,5.21,0,0,0,1.09-1.45c.16-.36.39-.46.68-.32a.53.53,0,0,1,.23.78,6,6,0,0,1-1.66,2.1,4.4,4.4,0,0,1-2.85.83A4.3,4.3,0,0,1,345.51,99a5.82,5.82,0,0,1-1.31-3.76,6.64,6.64,0,0,1,1.3-4.09A4.19,4.19,0,0,1,349.07,89.35Zm2.48,4.92c.26,0,.39-.14.39-.41a4,4,0,0,0-.74-2.47,2.54,2.54,0,0,0-2.18-1,2.74,2.74,0,0,0-2.33,1.2,4.47,4.47,0,0,0-.87,2.68Z"/><path class="cls-4" d="M398.72,98.71c.12-.15.27-.16.47,0a.34.34,0,0,1,.09.46,2,2,0,0,1-.66.82,1.85,1.85,0,0,1-1.2.37,1.38,1.38,0,0,1-1-.51,2.15,2.15,0,0,1-.58-1,4.6,4.6,0,0,1-1.51,1.16,5.21,5.21,0,0,1-2.58.65,3.37,3.37,0,0,1-2.3-.75,2.61,2.61,0,0,1-.85-2.08,3.12,3.12,0,0,1,1.27-2.51q1.27-1,6-1.69V92.07a1.38,1.38,0,0,0-.76-1.3,4,4,0,0,0-2-.43,3.29,3.29,0,0,0-1.33.24,1.5,1.5,0,0,0-.78.61c0,.1,0,.24.24.41a1,1,0,0,1,.3.76,1.07,1.07,0,0,1-.36.89,1.32,1.32,0,0,1-.86.29,1,1,0,0,1-.82-.37,1.43,1.43,0,0,1-.33-1,2.59,2.59,0,0,1,1-1.93,5.07,5.07,0,0,1,3.4-.91,4.22,4.22,0,0,1,2.72.8,3.26,3.26,0,0,1,1,2.67V98a1.75,1.75,0,0,0,.16.9.52.52,0,0,0,.47.24A1,1,0,0,0,398.72,98.71Zm-6.58.65a3.93,3.93,0,0,0,2.58-.91,2.49,2.49,0,0,0,1.11-1.88v-2a14.34,14.34,0,0,0-4.62,1.16,2.07,2.07,0,0,0-1.08,1.87,1.62,1.62,0,0,0,.55,1.37A2.34,2.34,0,0,0,392.14,99.36Z"/><path class="cls-4" d="M436.47,91.51a5.85,5.85,0,0,1,1.11-1.29,3.26,3.26,0,0,1,2.27-.94,1.73,1.73,0,0,1,1.2.47,1.58,1.58,0,0,1,.51,1.2,1.32,1.32,0,0,1-.36,1,1.22,1.22,0,0,1-.84.33,1.28,1.28,0,0,1-.8-.32,1.11,1.11,0,0,1-.39-.89,1.44,1.44,0,0,1,.09-.47c.07-.17.08-.26,0-.26-.72.09-1.37.81-1.94,2.19a9.86,9.86,0,0,0-.88,3.73v2.16a.65.65,0,0,0,.74.72H438c.4,0,.61.17.61.51s-.21.54-.61.54h-4.39c-.4,0-.61-.18-.61-.54s.21-.51.61-.51h.71a.65.65,0,0,0,.74-.72V91.58q0-.87-.66-.87h-.84c-.4,0-.61-.16-.61-.49s.21-.43.61-.48l2.38-.22c.38,0,.56.11.56.44Z"/></g></g></svg>