<svg xmlns="http://www.w3.org/2000/svg" viewBox="0 0 42.76 28.56"><defs><style>.cls-1{fill:#f7f7f7;}</style></defs><g id="Layer_2" data-name="Layer 2"><g id="Layer_1-2" data-name="Layer 1"><path class="cls-1" d="M1.78,12.44H41a1.79,1.79,0,0,1,1.78,1.8h0A1.79,1.79,0,0,1,41,16H1.78A1.79,1.79,0,0,1,0,14.24H0A1.79,1.79,0,0,1,1.78,12.44Z"/><path class="cls-1" d="M1.78,0H41a1.79,1.79,0,0,1,1.78,1.8h0A1.79,1.79,0,0,1,41,3.59H1.78A1.79,1.79,0,0,1,0,1.8H0A1.79,1.79,0,0,1,1.78,0Z"/><path class="cls-1" d="M1.78,25H41a1.79,1.79,0,0,1,1.78,1.8h0A1.79,1.79,0,0,1,41,28.56H1.78A1.79,1.79,0,0,1,0,26.77H0A1.79,1.79,0,0,1,1.78,25Z"/></g></g></svg>