<svg xmlns="http://www.w3.org/2000/svg" viewBox="0 0 38.06 50.75"><defs><style>.cls-1{fill:#f7f7f7;}</style></defs><g id="Layer_2" data-name="Layer 2"><g id="Layer_1-2" data-name="Layer 1"><path class="cls-1" d="M19,25.37A12.69,12.69,0,1,0,6.34,12.69,12.69,12.69,0,0,0,19,25.37ZM19,4.23a8.46,8.46,0,1,1-8.46,8.46A8.46,8.46,0,0,1,19,4.23Z"/><path class="cls-1" d="M19,29.6a19,19,0,0,0-19,19,2.12,2.12,0,1,0,4.23,0,14.8,14.8,0,0,1,29.6,0,2.12,2.12,0,1,0,4.23,0A19.06,19.06,0,0,0,19,29.6Z"/></g></g></svg>